<mxfile host="65bd71144e">
    <diagram id="qmvfy08nIKsCwz1kwUyf" name="Page-1">
        <mxGraphModel dx="832" dy="1671" grid="1" gridSize="10" guides="1" tooltips="1" connect="1" arrows="1" fold="1" page="1" pageScale="1" pageWidth="850" pageHeight="1100" math="0" shadow="0">
            <root>
                <mxCell id="0"/>
                <mxCell id="1" parent="0"/>
                <mxCell id="3" value="Hello" style="rhombus;whiteSpace=wrap;html=1;fillColor=#fff2cc;strokeColor=#d6b656;" parent="1" vertex="1">
                    <mxGeometry x="160" y="-330" width="80" height="80" as="geometry"/>
                </mxCell>
                <mxCell id="4" value="World" style="ellipse;shape=cloud;whiteSpace=wrap;html=1;fillColor=#fff2cc;strokeColor=#d6b656;" parent="1" vertex="1">
                    <mxGeometry x="490" y="-190" width="120" height="80" as="geometry"/>
                </mxCell>
                <mxCell id="6" value="" style="curved=1;endArrow=classic;html=1;" parent="1" source="3" target="4" edge="1">
                    <mxGeometry width="50" height="50" relative="1" as="geometry">
                        <mxPoint x="260" y="-330" as="sourcePoint"/>
                        <mxPoint x="550" y="-220" as="targetPoint"/>
                        <Array as="points">
                            <mxPoint x="450" y="-330"/>
                            <mxPoint x="390" y="-150"/>
                        </Array>
                    </mxGeometry>
                </mxCell>
                <mxCell id="7" value="" style="verticalLabelPosition=bottom;verticalAlign=top;html=1;shape=mxgraph.basic.heart" parent="1" vertex="1">
                    <mxGeometry x="260" y="-190" width="100" height="100" as="geometry"/>
                </mxCell>
                <mxCell id="9" value="" style="edgeStyle=entityRelationEdgeStyle;startArrow=none;endArrow=none;segment=10;curved=1;sourcePerimeterSpacing=0;targetPerimeterSpacing=0;" parent="1" edge="1">
                    <mxGeometry relative="1" as="geometry">
                        <mxPoint x="310" y="-180" as="sourcePoint"/>
                        <mxPoint x="370" y="-300" as="targetPoint"/>
                    </mxGeometry>
                </mxCell>
            </root>
        </mxGraphModel>
    </diagram>
</mxfile>